<?xml version="1.0" standalone="no"?>
<!DOCTYPE svg PUBLIC "-//W3C//DTD SVG 20010904//EN"
 "http://www.w3.org/TR/2001/REC-SVG-20010904/DTD/svg10.dtd">
<svg version="1.0" xmlns="http://www.w3.org/2000/svg"
 width="1707.000000pt" height="1707.000000pt" viewBox="0 0 1707.000000 1707.000000"
 preserveAspectRatio="xMidYMid meet">
<metadata>
Created by potrace 1.14, written by Peter Selinger 2001-2017
</metadata>
<g transform="translate(0.000000,1707.000000) scale(0.100000,-0.100000)"
fill="#000000" stroke="none">
<path d="M6465 16243 c-10 -32 -20 -62 -21 -68 -3 -15 -128 -409 -138 -435 -5
-13 -65 -15 -458 -14 l-451 0 -19 -44 c-52 -116 -79 -216 -82 -299 l-3 -83
391 0 c351 -1 463 -4 475 -16 5 -5 -20 -97 -30 -108 -5 -5 -167 -11 -376 -12
-203 -1 -417 -3 -476 -3 l-108 -1 -29 -64 c-62 -140 -79 -201 -84 -306 -2 -55
-1 -100 3 -100 3 -1 207 -2 453 -4 246 -1 451 -6 455 -9 10 -11 -36 -147 -50
-148 -7 0 -235 -1 -509 -1 l-496 -1 -60 -156 c-77 -198 -75 -189 -77 -298 l-2
-93 494 0 c468 0 495 -1 488 -17 -4 -10 -18 -53 -31 -95 -14 -43 -28 -78 -32
-79 -45 -7 -538 -19 -916 -22 l-170 -2 -63 -160 c-92 -233 -102 -270 -99 -359
2 -42 5 -78 7 -80 2 -2 227 -7 499 -10 272 -3 504 -8 515 -10 27 -5 24 -30
-15 -153 l-30 -98 -178 -2 c-97 -1 -356 -2 -575 -3 -335 -2 -400 -4 -412 -17
-8 -8 -15 -19 -15 -25 0 -5 -7 -24 -15 -41 -27 -60 -143 -362 -155 -407 -7
-25 -14 -84 -15 -132 l-3 -88 517 -1 c484 0 608 -2 617 -11 2 -3 -17 -71 -42
-154 -25 -82 -48 -157 -51 -166 -3 -10 -8 -18 -12 -19 -3 0 -285 -3 -626 -5
-341 -3 -622 -8 -626 -12 -4 -4 -30 -65 -59 -137 -28 -71 -58 -143 -65 -160
-27 -62 -94 -242 -104 -280 -6 -22 -11 -87 -13 -145 l-2 -105 50 -2 c27 -2
300 -4 606 -5 306 -2 560 -6 564 -11 12 -12 -105 -401 -128 -423 -22 -22 -159
-26 -1209 -34 l-167 -2 -14 -36 c-9 -20 -57 -140 -108 -267 -50 -126 -98 -243
-105 -260 -66 -151 -74 -186 -72 -310 l2 -120 585 -1 c847 -3 770 0 765 -24
-4 -19 -119 -390 -162 -525 l-20 -60 -759 -3 -759 -2 -65 -163 c-35 -89 -70
-175 -76 -192 -34 -88 -60 -151 -148 -370 l-97 -239 -2 -178 -2 -177 715 -1
c393 0 729 -4 746 -8 l31 -7 -54 -170 c-30 -93 -56 -177 -58 -185 -10 -39
-123 -392 -127 -396 -3 -2 -386 -6 -852 -7 l-847 -2 -71 -175 c-38 -96 -76
-188 -83 -205 -7 -16 -22 -52 -33 -80 -50 -130 -286 -715 -304 -755 -19 -41
-21 -65 -21 -243 1 -109 2 -200 4 -202 3 -2 383 -5 846 -6 l841 -2 -9 -26
c-27 -84 -81 -255 -84 -269 -2 -9 -18 -60 -34 -112 -17 -52 -72 -228 -123
-390 -50 -162 -93 -297 -95 -299 -3 -4 -414 -6 -1784 -10 l-166 -1 -173 -432
c-96 -238 -180 -449 -189 -468 -8 -19 -16 -39 -17 -45 -2 -5 -75 -188 -163
-405 l-160 -396 -1 -190 0 -189 942 -2 c871 -2 1022 -4 1035 -17 3 -3 -1 -22
-8 -43 -7 -21 -14 -42 -15 -48 -2 -5 -22 -68 -45 -140 -22 -71 -53 -173 -69
-225 l-27 -95 3 -270 c2 -148 5 -274 8 -280 4 -12 781 -13 793 -2 4 4 8 13 9
20 1 7 16 59 34 117 17 58 33 112 35 120 2 8 20 71 40 140 21 69 51 170 67
225 16 55 31 105 32 110 13 51 29 106 40 135 8 19 14 37 14 40 0 21 52 191 63
205 5 7 1864 10 5546 9 l5538 0 18 -60 c20 -64 45 -148 70 -234 106 -362 128
-437 131 -450 2 -8 5 -22 8 -30 6 -17 47 -157 53 -180 2 -8 14 -51 27 -95 l23
-80 394 -3 c231 -1 397 2 400 7 3 5 5 143 4 308 l-1 298 -79 250 c-51 161 -76
252 -69 257 11 7 115 8 1344 11 l713 1 -3 201 -4 200 -68 165 c-37 91 -74 179
-81 195 -7 17 -63 156 -125 310 -61 154 -179 449 -262 655 -82 206 -155 381
-162 387 -11 13 -611 21 -1662 22 l-371 1 -36 113 c-42 130 -139 438 -172 547
-13 41 -38 120 -55 175 -55 173 -78 254 -73 259 5 5 507 8 1304 8 l457 0 4 21
c1 12 3 101 2 197 l-1 175 -67 170 c-38 94 -74 184 -81 200 -7 17 -91 224
-185 460 -95 237 -175 433 -179 437 -3 4 -406 8 -896 10 l-890 3 -18 55 c-16
51 -112 357 -177 566 -46 147 -48 138 40 141 41 1 393 2 783 3 389 1 707 4
708 8 0 4 1 82 2 173 l1 165 -195 487 -194 487 -220 1 c-430 2 -1360 7 -1372
8 -10 1 -110 292 -136 396 -3 11 -17 58 -31 104 -19 61 -23 87 -15 92 16 9
122 11 819 14 327 1 599 3 603 4 5 0 7 58 5 129 l-3 127 -114 280 c-63 154
-129 319 -148 366 l-34 87 -287 2 c-158 1 -486 2 -730 3 l-443 2 -14 45 c-7
25 -36 118 -64 208 -50 160 -59 201 -43 203 32 6 175 7 704 8 l606 1 -3 94
c-3 75 -11 115 -39 201 -27 80 -199 515 -211 532 -5 9 -198 12 -737 12 l-607
1 -36 118 c-20 64 -44 141 -54 170 l-19 53 24 9 c14 6 28 9 32 9 4 -1 269 -1
588 0 l582 1 -3 98 c-4 109 -13 139 -133 437 l-68 170 -610 2 c-335 1 -617 2
-626 2 -10 1 -19 13 -23 31 -4 17 -20 72 -36 123 -16 50 -29 95 -29 98 0 6
146 8 828 12 l313 1 -2 78 c-3 111 -10 137 -103 373 l-64 160 -238 1 c-210 1
-847 13 -913 17 -22 2 -28 12 -52 92 -24 81 -25 91 -10 96 16 6 158 9 726 14
171 2 315 3 321 4 16 2 9 158 -9 206 -8 22 -41 106 -72 186 l-58 147 -521 0
c-286 0 -535 1 -551 1 -29 1 -31 5 -53 75 -12 40 -22 76 -22 78 0 3 219 6 488
6 268 0 498 1 511 1 24 1 24 2 19 84 -6 82 -36 179 -103 330 l-25 57 -117 0
c-65 1 -299 2 -520 3 l-402 2 -15 40 c-32 89 -43 81 111 82 76 1 290 3 476 4
385 2 356 -6 352 94 -2 61 -23 129 -79 265 l-32 75 -299 2 c-165 2 -389 4
-498 5 l-199 3 -25 80 c-38 124 -113 364 -133 425 l-17 55 -220 1 c-121 1
-225 -1 -232 -5 -6 -4 -13 -32 -16 -62 -3 -30 -7 -65 -10 -79 -4 -24 -12 -75
-19 -137 -16 -127 -20 -166 -20 -218 1 -33 -3 -62 -7 -65 -7 -5 -2359 -4
-2724 1 -115 2 -222 5 -237 8 -26 6 -26 6 -12 46 17 48 18 113 3 186 -6 30
-12 65 -15 79 -14 78 -46 217 -53 230 -6 12 -48 15 -232 17 l-225 3 -19 -57z
m3676 -1010 c9 -35 17 -63 16 -64 -9 -4 -3311 -2 -3319 2 -9 6 11 93 27 119 4
7 570 9 1632 8 l1626 -3 18 -62z m181 -613 c10 -36 18 -72 18 -80 0 -13 -155
-15 -1338 -14 -1143 2 -2362 6 -2362 8 1 10 33 108 41 127 l10 26 1806 -1
1806 -1 19 -65z m198 -682 c6 -24 18 -64 25 -90 8 -26 10 -50 6 -53 -17 -10
-140 -16 -411 -20 -330 -6 -2965 -6 -3235 -1 -104 2 -254 5 -332 6 -79 1 -145
5 -148 9 -2 4 5 37 16 72 37 116 30 108 106 111 37 2 944 4 2015 6 l1947 3 11
-43z m230 -798 c13 -25 72 -232 67 -237 -11 -10 -544 -13 -2332 -13 -1845 0
-2301 2 -2313 14 -7 7 57 239 68 246 5 3 1019 5 2255 5 1970 0 2248 -2 2255
-15z m298 -1010 c43 -142 82 -283 82 -297 0 -13 -274 -14 -2617 -10 -1440 3
-2627 7 -2638 10 -11 2 -19 9 -19 13 2 11 47 170 75 267 l20 68 2542 -3 2541
-3 14 -45z m366 -1247 c85 -297 98 -345 93 -350 -14 -13 -467 -16 -2827 -16
-2582 0 -3117 2 -3176 13 l-32 5 34 120 c39 139 71 246 87 293 l11 32 2891 0
2891 0 28 -97z m270 -1377 c71 -3 130 -7 132 -9 10 -10 166 -569 160 -574 -3
-3 -47 -9 -98 -12 -111 -7 -6653 -7 -6783 0 -106 6 -102 -10 -49 174 120 419
117 409 150 415 16 3 180 7 364 9 184 1 336 3 337 4 4 5 5678 -2 5787 -7z
m-3141 -1927 c2110 -2 3837 -4 3837 -5 0 -3 62 -214 85 -289 13 -44 31 -105
39 -135 8 -30 24 -86 36 -125 27 -88 60 -204 60 -209 0 -5 243 -5 -3625 -5
-3578 0 -4571 2 -4580 11 -6 5 25 119 136 500 l74 257 45 3 c25 2 47 2 50 1 3
-1 1732 -3 3843 -4z m4547 -2434 c0 -1 25 -86 56 -190 65 -222 181 -621 218
-750 14 -49 30 -104 36 -121 5 -17 10 -33 10 -37 0 -3 -2212 -6 -4915 -7
-2703 0 -4915 3 -4915 8 0 5 7 32 16 62 9 29 17 61 19 69 5 20 167 584 230
798 l48 162 36 3 c26 2 9161 5 9161 3z"/>
</g>
</svg>
